<?xml version="1.0" encoding="UTF-8" standalone="no"?>
<!DOCTYPE svg PUBLIC "-//W3C//DTD SVG 1.1//EN"
 "http://www.w3.org/Graphics/SVG/1.1/DTD/svg11.dtd">
<!-- Generated by graphviz version 14.1.3 (20260303.0454)
 -->
<!-- Pages: 1 -->
<svg width="592pt" height="127pt"
 viewBox="0.00 0.00 592.00 127.00" xmlns="http://www.w3.org/2000/svg" xmlns:xlink="http://www.w3.org/1999/xlink">
<g id="graph0" class="graph" transform="scale(1 1) rotate(0) translate(4 123)">
<polygon fill="white" stroke="none" points="-4,4 -4,-123 587.5,-123 587.5,4 -4,4"/>
<!-- 2752146453040 -->
<g id="node1" class="node">
<title>2752146453040</title>
<polygon fill="none" stroke="black" points="476.5,-54.5 476.5,-90.5 583.5,-90.5 583.5,-54.5 476.5,-54.5"/>
<text xml:space="preserve" text-anchor="middle" x="487.88" y="-67.7" font-family="Times New Roman,serif" font-size="14.00">d</text>
<polyline fill="none" stroke="black" points="499.25,-55 499.25,-90.5"/>
<text xml:space="preserve" text-anchor="middle" x="541.38" y="-67.7" font-family="Times New Roman,serif" font-size="14.00">data=4.0000</text>
</g>
<!-- 2752146453040+ -->
<g id="node2" class="node">
<title>2752146453040+</title>
<ellipse fill="none" stroke="black" cx="413.5" cy="-72.5" rx="27" ry="18"/>
<text xml:space="preserve" text-anchor="middle" x="413.5" y="-67.45" font-family="Times New Roman,serif" font-size="14.00">+</text>
</g>
<!-- 2752146453040+&#45;&gt;2752146453040 -->
<g id="edge1" class="edge">
<title>2752146453040+&#45;&gt;2752146453040</title>
<path fill="none" stroke="black" d="M440.77,-72.5C448.11,-72.5 456.43,-72.5 464.96,-72.5"/>
<polygon fill="black" stroke="black" points="464.7,-76 474.7,-72.5 464.7,-69 464.7,-76"/>
</g>
<!-- 2752174522000 -->
<g id="node3" class="node">
<title>2752174522000</title>
<polygon fill="none" stroke="black" points="237.5,-82.5 237.5,-118.5 350.5,-118.5 350.5,-82.5 237.5,-82.5"/>
<text xml:space="preserve" text-anchor="middle" x="248.5" y="-95.7" font-family="Times New Roman,serif" font-size="14.00">c</text>
<polyline fill="none" stroke="black" points="259.5,-83 259.5,-118.5"/>
<text xml:space="preserve" text-anchor="middle" x="305" y="-95.7" font-family="Times New Roman,serif" font-size="14.00">data=10.0000</text>
</g>
<!-- 2752174522000&#45;&gt;2752146453040+ -->
<g id="edge4" class="edge">
<title>2752174522000&#45;&gt;2752146453040+</title>
<path fill="none" stroke="black" d="M351,-87.16C359.76,-85.07 368.6,-82.96 376.74,-81.02"/>
<polygon fill="black" stroke="black" points="377.31,-84.48 386.23,-78.76 375.69,-77.67 377.31,-84.48"/>
</g>
<!-- 2752174522192 -->
<g id="node4" class="node">
<title>2752174522192</title>
<polygon fill="none" stroke="black" points="238.62,-27.5 238.62,-63.5 349.38,-63.5 349.38,-27.5 238.62,-27.5"/>
<text xml:space="preserve" text-anchor="middle" x="249.62" y="-40.7" font-family="Times New Roman,serif" font-size="14.00">e</text>
<polyline fill="none" stroke="black" points="260.62,-28 260.62,-63.5"/>
<text xml:space="preserve" text-anchor="middle" x="305" y="-40.7" font-family="Times New Roman,serif" font-size="14.00">data=&#45;6.0000</text>
</g>
<!-- 2752174522192&#45;&gt;2752146453040+ -->
<g id="edge5" class="edge">
<title>2752174522192&#45;&gt;2752146453040+</title>
<path fill="none" stroke="black" d="M349.62,-58.05C358.77,-60.15 368.05,-62.29 376.57,-64.24"/>
<polygon fill="black" stroke="black" points="375.63,-67.62 386.16,-66.45 377.2,-60.8 375.63,-67.62"/>
</g>
<!-- 2752174522192* -->
<g id="node5" class="node">
<title>2752174522192*</title>
<ellipse fill="none" stroke="black" cx="174.5" cy="-45.5" rx="27" ry="18"/>
<text xml:space="preserve" text-anchor="middle" x="174.5" y="-40.45" font-family="Times New Roman,serif" font-size="14.00">*</text>
</g>
<!-- 2752174522192*&#45;&gt;2752174522192 -->
<g id="edge2" class="edge">
<title>2752174522192*&#45;&gt;2752174522192</title>
<path fill="none" stroke="black" d="M201.87,-45.5C209.48,-45.5 218.15,-45.5 227.04,-45.5"/>
<polygon fill="black" stroke="black" points="226.84,-49 236.84,-45.5 226.84,-42 226.84,-49"/>
</g>
<!-- 2751365440880 -->
<g id="node6" class="node">
<title>2751365440880</title>
<polygon fill="none" stroke="black" points="2.62,-55.5 2.62,-91.5 108.88,-91.5 108.88,-55.5 2.62,-55.5"/>
<text xml:space="preserve" text-anchor="middle" x="13.62" y="-68.7" font-family="Times New Roman,serif" font-size="14.00">a</text>
<polyline fill="none" stroke="black" points="24.62,-56 24.62,-91.5"/>
<text xml:space="preserve" text-anchor="middle" x="66.75" y="-68.7" font-family="Times New Roman,serif" font-size="14.00">data=2.0000</text>
</g>
<!-- 2751365440880&#45;&gt;2752174522192* -->
<g id="edge3" class="edge">
<title>2751365440880&#45;&gt;2752174522192*</title>
<path fill="none" stroke="black" d="M109.32,-60.89C118.83,-58.61 128.55,-56.28 137.45,-54.15"/>
<polygon fill="black" stroke="black" points="138.22,-57.56 147.13,-51.83 136.59,-50.75 138.22,-57.56"/>
</g>
<!-- 2751365440928 -->
<g id="node7" class="node">
<title>2751365440928</title>
<polygon fill="none" stroke="black" points="0,-0.5 0,-36.5 111.5,-36.5 111.5,-0.5 0,-0.5"/>
<text xml:space="preserve" text-anchor="middle" x="11.38" y="-13.7" font-family="Times New Roman,serif" font-size="14.00">b</text>
<polyline fill="none" stroke="black" points="22.75,-1 22.75,-36.5"/>
<text xml:space="preserve" text-anchor="middle" x="67.12" y="-13.7" font-family="Times New Roman,serif" font-size="14.00">data=&#45;3.0000</text>
</g>
<!-- 2751365440928&#45;&gt;2752174522192* -->
<g id="edge6" class="edge">
<title>2751365440928&#45;&gt;2752174522192*</title>
<path fill="none" stroke="black" d="M111.71,-31.21C120.47,-33.24 129.34,-35.29 137.51,-37.18"/>
<polygon fill="black" stroke="black" points="136.52,-40.54 147.05,-39.38 138.1,-33.72 136.52,-40.54"/>
</g>
</g>
</svg>
