<?xml version="1.0" encoding="UTF-8" standalone="no"?>
<!DOCTYPE svg PUBLIC "-//W3C//DTD SVG 1.1//EN"
 "http://www.w3.org/Graphics/SVG/1.1/DTD/svg11.dtd">
<!-- Generated by graphviz version 14.1.3 (20260303.0454)
 -->
<!-- Pages: 1 -->
<svg width="1187pt" height="156pt"
 viewBox="0.00 0.00 1187.00 156.00" xmlns="http://www.w3.org/2000/svg" xmlns:xlink="http://www.w3.org/1999/xlink">
<g id="graph0" class="graph" transform="scale(1 1) rotate(0) translate(4 152)">
<polygon fill="white" stroke="none" points="-4,4 -4,-152 1183,-152 1183,4 -4,4"/>
<!-- 1677107981984 -->
<g id="node1" class="node">
<title>1677107981984</title>
<polygon fill="none" stroke="black" points="4.88,-111.5 4.88,-147.5 196.88,-147.5 196.88,-111.5 4.88,-111.5"/>
<text xml:space="preserve" text-anchor="middle" x="15.88" y="-124.7" font-family="Times New Roman,serif" font-size="14.00">a</text>
<polyline fill="none" stroke="black" points="26.88,-112 26.88,-147.5"/>
<text xml:space="preserve" text-anchor="middle" x="69" y="-124.7" font-family="Times New Roman,serif" font-size="14.00">data=2.0000</text>
<polyline fill="none" stroke="black" points="111.12,-112 111.12,-147.5"/>
<text xml:space="preserve" text-anchor="middle" x="154" y="-124.7" font-family="Times New Roman,serif" font-size="14.00">grad=6.0000</text>
</g>
<!-- 1675769891248* -->
<g id="node10" class="node">
<title>1675769891248*</title>
<ellipse fill="none" stroke="black" cx="264.75" cy="-101.5" rx="27" ry="18"/>
<text xml:space="preserve" text-anchor="middle" x="264.75" y="-96.45" font-family="Times New Roman,serif" font-size="14.00">*</text>
</g>
<!-- 1677107981984&#45;&gt;1675769891248* -->
<g id="edge4" class="edge">
<title>1677107981984&#45;&gt;1675769891248*</title>
<path fill="none" stroke="black" d="M196.97,-113.05C207.5,-111.23 217.7,-109.47 226.82,-107.89"/>
<polygon fill="black" stroke="black" points="227.39,-111.34 236.65,-106.19 226.2,-104.44 227.39,-111.34"/>
</g>
<!-- 1677107982032 -->
<g id="node2" class="node">
<title>1677107982032</title>
<polygon fill="none" stroke="black" points="0,-56.5 0,-92.5 201.75,-92.5 201.75,-56.5 0,-56.5"/>
<text xml:space="preserve" text-anchor="middle" x="11.38" y="-69.7" font-family="Times New Roman,serif" font-size="14.00">b</text>
<polyline fill="none" stroke="black" points="22.75,-57 22.75,-92.5"/>
<text xml:space="preserve" text-anchor="middle" x="67.12" y="-69.7" font-family="Times New Roman,serif" font-size="14.00">data=&#45;3.0000</text>
<polyline fill="none" stroke="black" points="111.5,-57 111.5,-92.5"/>
<text xml:space="preserve" text-anchor="middle" x="156.62" y="-69.7" font-family="Times New Roman,serif" font-size="14.00">grad=&#45;4.0000</text>
</g>
<!-- 1677107982032&#45;&gt;1675769891248* -->
<g id="edge6" class="edge">
<title>1677107982032&#45;&gt;1675769891248*</title>
<path fill="none" stroke="black" d="M202.09,-91.22C210.83,-92.67 219.26,-94.08 226.92,-95.36"/>
<polygon fill="black" stroke="black" points="226.35,-98.81 236.79,-97 227.5,-91.91 226.35,-98.81"/>
</g>
<!-- 1675769892064 -->
<g id="node3" class="node">
<title>1675769892064</title>
<polygon fill="none" stroke="black" points="657,-55.5 657,-91.5 854.25,-91.5 854.25,-55.5 657,-55.5"/>
<text xml:space="preserve" text-anchor="middle" x="668.38" y="-68.7" font-family="Times New Roman,serif" font-size="14.00">d</text>
<polyline fill="none" stroke="black" points="679.75,-56 679.75,-91.5"/>
<text xml:space="preserve" text-anchor="middle" x="721.88" y="-68.7" font-family="Times New Roman,serif" font-size="14.00">data=4.0000</text>
<polyline fill="none" stroke="black" points="764,-56 764,-91.5"/>
<text xml:space="preserve" text-anchor="middle" x="809.12" y="-68.7" font-family="Times New Roman,serif" font-size="14.00">grad=&#45;2.0000</text>
</g>
<!-- 1675782382480* -->
<g id="node8" class="node">
<title>1675782382480*</title>
<ellipse fill="none" stroke="black" cx="917.25" cy="-45.5" rx="27" ry="18"/>
<text xml:space="preserve" text-anchor="middle" x="917.25" y="-40.45" font-family="Times New Roman,serif" font-size="14.00">*</text>
</g>
<!-- 1675769892064&#45;&gt;1675782382480* -->
<g id="edge9" class="edge">
<title>1675769892064&#45;&gt;1675782382480*</title>
<path fill="none" stroke="black" d="M854.53,-56.33C863.36,-54.78 871.88,-53.28 879.62,-51.93"/>
<polygon fill="black" stroke="black" points="879.98,-55.42 889.22,-50.24 878.77,-48.52 879.98,-55.42"/>
</g>
<!-- 1675769892064+ -->
<g id="node4" class="node">
<title>1675769892064+</title>
<ellipse fill="none" stroke="black" cx="594" cy="-73.5" rx="27" ry="18"/>
<text xml:space="preserve" text-anchor="middle" x="594" y="-68.45" font-family="Times New Roman,serif" font-size="14.00">+</text>
</g>
<!-- 1675769892064+&#45;&gt;1675769892064 -->
<g id="edge1" class="edge">
<title>1675769892064+&#45;&gt;1675769892064</title>
<path fill="none" stroke="black" d="M621.36,-73.5C628.46,-73.5 636.6,-73.5 645.28,-73.5"/>
<polygon fill="black" stroke="black" points="645.02,-77 655.02,-73.5 645.02,-70 645.02,-77"/>
</g>
<!-- 1675782381280 -->
<g id="node5" class="node">
<title>1675782381280</title>
<polygon fill="none" stroke="black" points="658.12,-0.5 658.12,-36.5 853.12,-36.5 853.12,-0.5 658.12,-0.5"/>
<text xml:space="preserve" text-anchor="middle" x="668.38" y="-13.7" font-family="Times New Roman,serif" font-size="14.00">f</text>
<polyline fill="none" stroke="black" points="678.62,-1 678.62,-36.5"/>
<text xml:space="preserve" text-anchor="middle" x="723" y="-13.7" font-family="Times New Roman,serif" font-size="14.00">data=&#45;2.0000</text>
<polyline fill="none" stroke="black" points="767.38,-1 767.38,-36.5"/>
<text xml:space="preserve" text-anchor="middle" x="810.25" y="-13.7" font-family="Times New Roman,serif" font-size="14.00">grad=4.0000</text>
</g>
<!-- 1675782381280&#45;&gt;1675782382480* -->
<g id="edge5" class="edge">
<title>1675782381280&#45;&gt;1675782382480*</title>
<path fill="none" stroke="black" d="M853.62,-34.91C862.64,-36.43 871.35,-37.9 879.26,-39.24"/>
<polygon fill="black" stroke="black" points="878.66,-42.69 889.1,-40.91 879.82,-35.79 878.66,-42.69"/>
</g>
<!-- 1675769891056 -->
<g id="node6" class="node">
<title>1675769891056</title>
<polygon fill="none" stroke="black" points="327.75,-28.5 327.75,-64.5 531,-64.5 531,-28.5 327.75,-28.5"/>
<text xml:space="preserve" text-anchor="middle" x="338.75" y="-41.7" font-family="Times New Roman,serif" font-size="14.00">c</text>
<polyline fill="none" stroke="black" points="349.75,-29 349.75,-64.5"/>
<text xml:space="preserve" text-anchor="middle" x="395.25" y="-41.7" font-family="Times New Roman,serif" font-size="14.00">data=10.0000</text>
<polyline fill="none" stroke="black" points="440.75,-29 440.75,-64.5"/>
<text xml:space="preserve" text-anchor="middle" x="485.88" y="-41.7" font-family="Times New Roman,serif" font-size="14.00">grad=&#45;2.0000</text>
</g>
<!-- 1675769891056&#45;&gt;1675769892064+ -->
<g id="edge7" class="edge">
<title>1675769891056&#45;&gt;1675769892064+</title>
<path fill="none" stroke="black" d="M531.05,-63.22C539.94,-64.69 548.5,-66.11 556.28,-67.4"/>
<polygon fill="black" stroke="black" points="555.48,-70.82 565.92,-69 556.63,-63.91 555.48,-70.82"/>
</g>
<!-- 1675782382480 -->
<g id="node7" class="node">
<title>1675782382480</title>
<polygon fill="none" stroke="black" points="980.25,-27.5 980.25,-63.5 1179,-63.5 1179,-27.5 980.25,-27.5"/>
<text xml:space="preserve" text-anchor="middle" x="992.38" y="-40.7" font-family="Times New Roman,serif" font-size="14.00">L</text>
<polyline fill="none" stroke="black" points="1004.5,-28 1004.5,-63.5"/>
<text xml:space="preserve" text-anchor="middle" x="1048.88" y="-40.7" font-family="Times New Roman,serif" font-size="14.00">data=&#45;8.0000</text>
<polyline fill="none" stroke="black" points="1093.25,-28 1093.25,-63.5"/>
<text xml:space="preserve" text-anchor="middle" x="1136.12" y="-40.7" font-family="Times New Roman,serif" font-size="14.00">grad=1.0000</text>
</g>
<!-- 1675782382480*&#45;&gt;1675782382480 -->
<g id="edge2" class="edge">
<title>1675782382480*&#45;&gt;1675782382480</title>
<path fill="none" stroke="black" d="M944.73,-45.5C951.86,-45.5 960.04,-45.5 968.77,-45.5"/>
<polygon fill="black" stroke="black" points="968.56,-49 978.56,-45.5 968.56,-42 968.56,-49"/>
</g>
<!-- 1675769891248 -->
<g id="node9" class="node">
<title>1675769891248</title>
<polygon fill="none" stroke="black" points="328.88,-83.5 328.88,-119.5 529.88,-119.5 529.88,-83.5 328.88,-83.5"/>
<text xml:space="preserve" text-anchor="middle" x="339.88" y="-96.7" font-family="Times New Roman,serif" font-size="14.00">e</text>
<polyline fill="none" stroke="black" points="350.88,-84 350.88,-119.5"/>
<text xml:space="preserve" text-anchor="middle" x="395.25" y="-96.7" font-family="Times New Roman,serif" font-size="14.00">data=&#45;6.0000</text>
<polyline fill="none" stroke="black" points="439.62,-84 439.62,-119.5"/>
<text xml:space="preserve" text-anchor="middle" x="484.75" y="-96.7" font-family="Times New Roman,serif" font-size="14.00">grad=&#45;2.0000</text>
</g>
<!-- 1675769891248&#45;&gt;1675769892064+ -->
<g id="edge8" class="edge">
<title>1675769891248&#45;&gt;1675769892064+</title>
<path fill="none" stroke="black" d="M530.12,-84.33C539.4,-82.73 548.34,-81.19 556.42,-79.8"/>
<polygon fill="black" stroke="black" points="556.84,-83.28 566.1,-78.13 555.65,-76.38 556.84,-83.28"/>
</g>
<!-- 1675769891248*&#45;&gt;1675769891248 -->
<g id="edge3" class="edge">
<title>1675769891248*&#45;&gt;1675769891248</title>
<path fill="none" stroke="black" d="M292.24,-101.5C299.6,-101.5 308.08,-101.5 317.13,-101.5"/>
<polygon fill="black" stroke="black" points="316.91,-105 326.91,-101.5 316.91,-98 316.91,-105"/>
</g>
</g>
</svg>
